<svg width="37" height="41" viewBox="0 0 37 41" fill="none" xmlns="http://www.w3.org/2000/svg">
<g clip-path="url(#clip0_11_225)">
<path d="M1.54163 1.70834H7.70829L11.84 24.5829C11.9809 25.3694 12.3671 26.0759 12.9308 26.5788C13.4944 27.0816 14.1998 27.3487 14.9233 27.3333H29.9083C30.6318 27.3487 31.3371 27.0816 31.9008 26.5788C32.4645 26.0759 32.8506 25.3694 32.9916 24.5829L35.4583 10.25H9.24996M15.4166 35.875C15.4166 36.8185 14.7264 37.5833 13.875 37.5833C13.0235 37.5833 12.3333 36.8185 12.3333 35.875C12.3333 34.9315 13.0235 34.1667 13.875 34.1667C14.7264 34.1667 15.4166 34.9315 15.4166 35.875ZM32.375 35.875C32.375 36.8185 31.6847 37.5833 30.8333 37.5833C29.9819 37.5833 29.2916 36.8185 29.2916 35.875C29.2916 34.9315 29.9819 34.1667 30.8333 34.1667C31.6847 34.1667 32.375 34.9315 32.375 35.875Z" stroke="black" stroke-width="4" stroke-linecap="round" stroke-linejoin="round"/>
</g>
<defs>
<clipPath id="clip0_11_225">
<rect width="37" height="41" fill="white"/>
</clipPath>
</defs>
</svg>
